<svg height="483pt" viewBox="0 -4 483.624 483" width="483pt" xmlns="http://www.w3.org/2000/svg"><path d="m264 475.96875h80v-279.359375c-25.246094 17.773437-52.015625 33.273437-80 46.320313zm0 0" fill="#ffcd00"/><path d="m392 158.527344v317.441406h80v-396.082031l-57.441406 57.441406c-7.359375 7.359375-14.878906 14.398437-22.558594 21.199219zm0 0" fill="#5eac24"/><path d="m136 475.96875h80v-213.519531c-26.0625 9.140625-52.8125 16.175781-80 21.039062zm0 0" fill="#ab2300"/><path d="m8 291.96875v184h80v-186.082031c-15.441406 1.359375-31.121094 2.082031-46.800781 2.082031zm0 0" fill="#00b6bd"/><path d="m413.808594 20.273438 4.382812 15.390624 26.320313-7.519531-69.601563 69.597657c-11.414062 11.417968-23.414062 22.234374-35.949218 32.410156-24.414063 19.894531-50.777344 37.269531-78.6875 51.855468-15.296876 8.078126-31.058594 15.246094-47.203126 21.464844-25.488281 10.007813-51.804687 17.769532-78.644531 23.199219-15.523437 3.128906-31.402343 5.503906-47.203125 7.070313-15.796875 1.570312-31.222656 2.226562-46.023437 2.226562h-41.199219v16h41.199219c15.320312 0 31.3125-.800781 47.59375-2.28125 16.277343-1.480469 32.757812-4.078125 48.800781-7.3125 27.742188-5.613281 54.941406-13.644531 81.285156-24 16.691406-6.4375 32.984375-13.855469 48.800782-22.214844 28.855468-15.074218 56.109374-33.035156 81.34375-53.601562 12.964843-10.519532 25.371093-21.703125 37.175781-33.511719l69.601562-69.597656-7.519531 26.320312 15.390625 4.382813 19.953125-69.839844zm0 0" fill="#4e901e"/></svg>